<svg version="1.1" xmlns="http://www.w3.org/2000/svg" xmlns:xlink="http://www.w3.org/1999/xlink" x="0px" y="0px" viewBox="106.733 154.733 285.689 95.267" xml:space="preserve">
    <style>
        .blue{
            fill:#3E86B3;
        }
        .grey{
        fill:#333333;
        }
    </style>
    <g class="4s">
        <polygon class="blue" points="249.597,154.733 238.298,160.45 238.298,168.57 249.597,162.854 	"/>
        <polygon class="blue" points="241.625,179.921 245.53,178.602 245.536,172.896 245.503,172.906 	"/>
        <path class="blue" d="M249.597,163.343l-16.81,8.559l16.81,30.185V163.343z M248.421,178.929l-1.52,0.514l-0.002,5.606l-1.373,0.464l0.002-5.607
            l-6.308,2.132l7.66-13.861l0.033-0.012l-0.01,9.974l1.52-0.514L248.421,178.929z"/>
        <polygon class="grey" points="261.407,160.45 250.109,154.733 250.109,162.854 261.407,168.57 	"/>
        <path class="grey" d="M250.109,202.087l16.809-30.186l-16.809-8.559V202.087z M255.545,177.162l-0.553-0.78c-1.058-1.529-1.96-3.062-1.853-5.244
            c0.115-2.364,1.424-3.069,2.819-2.151c1.047,0.688,1.889,2.138,2.312,3.96l-0.877,0.32c-0.322-1.297-0.74-2.197-1.539-2.721
            c-0.834-0.549-1.604-0.053-1.672,1.341c-0.065,1.313,0.74,2.468,1.353,3.35l0.601,0.854c1.18,1.673,2.164,3.342,2.045,5.767
            c-0.131,2.667-1.551,3.84-3.183,2.768c-1.509-0.99-2.552-3.304-2.734-5.865l1.044,0.208c0.061,1.645,0.732,3.401,1.742,4.065
            c1.009,0.663,1.993,0.016,2.077-1.701C257.215,179.554,256.386,178.382,255.545,177.162z"/>
    </g>
    <g class="maritime grey">
        <polygon points="219.474,207.143 215.098,217.215 210.738,207.143 208.304,219.824 209.672,219.824 211.215,211.709 
            211.247,211.709 215.098,220.317 218.964,211.709 218.996,211.709 220.54,219.824 221.908,219.824 	"/>
        <path d="M224.229,219.824h1.464l1.447-3.405h5.124l1.417,3.405h1.48l-5.395-12.57L224.229,219.824z M227.682,215.177l2.052-4.805
            l2.005,4.805H227.682z"/>
        <path d="M239.709,214.557h0.334l3.628,5.268h1.639l-3.818-5.379c1.846-0.158,3.007-1.464,3.007-3.31c0-2.705-2.116-3.31-4.392-3.31
            h-1.734v11.998h1.336V214.557L239.709,214.557z M239.709,209.067h0.398c1.607,0,3.055,0.191,3.055,2.164
            c0,1.862-1.528,2.148-3.039,2.148h-0.414V209.067z"/>
        <rect x="248.936" y="207.826" width="1.336" height="11.998"/>
        <polygon points="253.565,209.067 256.462,209.067 256.462,219.824 257.798,219.824 257.798,209.067 260.726,209.067 
            260.726,207.826 253.565,207.826 	"/>
        <rect x="264.019" y="207.826" width="1.336" height="11.998"/>
        <polygon points="282.428,219.824 279.993,207.143 275.617,217.215 271.258,207.143 268.823,219.824 270.191,219.824 
            271.734,211.709 271.766,211.709 275.617,220.317 279.483,211.709 279.515,211.709 281.06,219.824 	"/>
        <polygon points="292.083,218.583 287.198,218.583 287.198,213.874 291.94,213.874 291.94,212.632 287.198,212.632 287.198,209.067 
            292.083,209.067 292.083,207.826 285.862,207.826 285.862,219.824 292.083,219.824 	"/>
    </g>
    <g class="description grey">
        <path d="M108.621,239.588c-0.295-0.384-0.413-0.723-0.413-1.209c0-0.768,0.501-1.43,1.312-1.43c0.501,0,0.871,0.19,1.254,0.472
            l0.015-1.49c-0.472-0.28-1.002-0.369-1.563-0.369c-1.667,0-2.493,1.284-2.493,2.846c0,2.921,3.111,3.363,3.111,5.575
            c0,0.826-0.384,1.549-1.297,1.549c-0.576,0-1.019-0.251-1.461-0.576v1.491c0.458,0.368,1.048,0.531,1.622,0.531
            c1.637,0,2.61-1.343,2.61-2.906c0-1.504-0.575-2.24-1.579-3.259L108.621,239.588z"/>
        <polygon points="116.588,241.565 116.043,244.573 115.999,245.015 115.969,245.015 114.966,239.381 113.492,239.381 
            115.512,246.83 116.426,246.83 118.388,239.381 117.045,239.381 	"/>
        <path d="M122.86,239.264c-2.05,0-2.227,2.374-2.227,3.893c0,1.578,0.191,3.791,2.271,3.791c1.563,0,2.168-1.255,2.168-2.626h-1.282
            c0,0.575-0.133,1.387-0.871,1.387c-0.9,0-0.871-1.712-0.871-2.331h3.068v-0.222C125.116,241.623,124.88,239.264,122.86,239.264z
             M122.049,242.389c0-0.575-0.059-1.887,0.812-1.887c0.841,0,0.841,1.312,0.841,1.887H122.049z"/>
        <path d="M130.725,239.264c-0.738,0-1.194,0.369-1.504,0.973h-0.03v-0.855h-1.386v7.449h1.386v-4.646
            c0-0.635-0.074-1.681,0.841-1.681c0.738,0,0.825,0.664,0.825,1.181v5.147h1.386v-5.118
            C132.244,240.576,132.2,239.264,130.725,239.264z"/>
        <path d="M138.089,240.207h-0.03c-0.28-0.561-0.62-0.943-1.328-0.943c-1.755,0-1.799,2.507-1.799,3.745
            c0,1.209,0.029,3.938,1.755,3.938c0.782,0,1.092-0.429,1.372-1.076h0.03v0.957h1.386v-12.24h-1.386V240.207z M137.262,245.709
            c-1.032,0-0.915-1.99-0.915-2.61c0-0.604-0.118-2.596,0.915-2.596c0.93,0,0.871,2.007,0.871,2.596S138.192,245.709,137.262,245.709
            z"/>
        <path d="M145.113,239.264c-0.708,0-1.047,0.369-1.328,0.943h-0.029v-5.618h-1.386v12.241h1.386v-0.959h0.029
            c0.281,0.648,0.576,1.076,1.371,1.076c1.726,0,1.755-2.729,1.755-3.938C146.912,241.771,146.868,239.264,145.113,239.264z
             M144.582,245.709c-0.93-0.016-0.871-2.021-0.871-2.61s-0.059-2.596,0.871-2.596c1.032,0,0.914,1.991,0.914,2.596
            S145.615,245.693,144.582,245.709z"/>
        <path d="M151.739,239.264c-2.124,0-2.345,2.24-2.345,3.863c0,1.562,0.221,3.82,2.345,3.82c2.124,0,2.345-2.258,2.345-3.82
            C154.084,241.505,153.862,239.264,151.739,239.264z M151.739,245.679c-1.062,0-0.93-2.021-0.93-2.552
            c0-0.589-0.133-2.595,0.93-2.595c1.061,0,0.928,2.006,0.928,2.595C152.668,243.66,152.8,245.679,151.739,245.679z"/>
        <path d="M158.188,240.295h-0.03v-0.914h-1.386v7.449h1.401v-4.689c0-0.944,0.325-1.519,1.357-1.519l0.236,0.015v-1.371
            C158.999,239.264,158.512,239.646,158.188,240.295z"/>
        <path d="M165.314,240.236l-0.03,0.029c-0.295-0.59-0.619-1.002-1.357-1.002c-1.814,0-1.785,2.697-1.785,3.893
            c0,1.268,0.044,3.791,1.814,3.791c0.679,0.029,1.136-0.398,1.328-1.003h0.03v1.239c0,0.68,0.088,1.578-0.841,1.578
            c-0.692,0-0.915-0.589-0.885-1.121h-1.342v0.206c0,1.388,0.856,2.153,2.197,2.153c1.475,0,2.271-0.456,2.271-3.111v-7.506h-1.402
            v0.854H165.314z M164.474,245.709c-1.002,0-0.915-2.079-0.915-2.64c0-0.531-0.089-2.566,0.871-2.566c0.9,0,0.9,2.035,0.9,2.64
            C165.329,243.746,165.476,245.709,164.474,245.709z"/>
        <path d="M175.792,239.588c-0.295-0.384-0.414-0.723-0.414-1.209c0-0.768,0.502-1.43,1.312-1.43c0.501,0,0.871,0.19,1.254,0.472
            l0.015-1.49c-0.472-0.28-1.002-0.369-1.563-0.369c-1.667,0-2.493,1.284-2.493,2.846c0,2.921,3.111,3.363,3.111,5.575
            c0,0.826-0.384,1.549-1.297,1.549c-0.576,0-1.019-0.251-1.461-0.576v1.491c0.457,0.368,1.047,0.531,1.622,0.531
            c1.637,0,2.61-1.343,2.61-2.906c0-1.504-0.575-2.24-1.579-3.259L175.792,239.588z"/>
        <path d="M184.04,239.264c-0.738,0-1.194,0.369-1.504,0.973h-0.029v-5.648h-1.386v12.24h1.386v-4.646
            c0-0.635-0.074-1.681,0.841-1.681c0.738,0,0.825,0.664,0.825,1.18v5.148h1.386v-5.119
            C185.56,240.576,185.531,239.264,184.04,239.264z"/>
        <rect x="188.454" y="239.381" width="1.386" height="7.449"/>
        <path d="M189.162,236.211c-0.517,0-0.929,0.412-0.929,0.914c0,0.516,0.412,0.93,0.929,0.93c0.487,0,0.915-0.414,0.915-0.93
            C190.076,236.623,189.649,236.211,189.162,236.211z"/>
        <path d="M195.521,239.264c-0.768,0-1.105,0.441-1.371,1.076h-0.03v-0.959h-1.386v10.501h1.386v-3.894h0.03
            c0.28,0.605,0.605,0.959,1.328,0.959c1.755,0,1.799-2.508,1.799-3.762C197.276,241.977,197.246,239.264,195.521,239.264z
             M195.86,243.112c0,1.239-0.044,2.596-0.914,2.596c-0.93,0-0.871-2.007-0.871-2.596c0-0.604-0.059-2.61,0.871-2.61
            C195.979,240.502,195.86,242.508,195.86,243.112z"/>
        <path d="M206.146,239.588c-0.295-0.384-0.414-0.723-0.414-1.209c0-0.768,0.502-1.43,1.312-1.43c0.501,0,0.871,0.19,1.254,0.472
            l0.015-1.49c-0.472-0.28-1.002-0.369-1.563-0.369c-1.667,0-2.493,1.284-2.493,2.846c0,2.921,3.111,3.363,3.111,5.575
            c0,0.826-0.384,1.549-1.297,1.549c-0.576,0-1.019-0.251-1.461-0.576v1.491c0.457,0.368,1.047,0.531,1.622,0.531
            c1.638,0,2.61-1.343,2.61-2.906c0-1.504-0.575-2.24-1.579-3.259L206.146,239.588z"/>
        <path d="M214.541,244.115c0,0.664,0.104,1.563-0.826,1.563c-0.944,0-0.854-0.973-0.854-1.637v-4.661h-1.386v4.734
            c0,1.697,0.281,2.832,2.301,2.832c1.696,0,2.153-1.002,2.153-2.535v-5.029h-1.386v4.732H214.541z"/>
        <path d="M220.253,240.295h-0.03v-0.914h-1.386v7.449h1.401v-4.689c0-0.944,0.325-1.519,1.357-1.519l0.236,0.015v-1.371
            C221.065,239.264,220.578,239.646,220.253,240.295z"/>
        <polygon points="227.07,241.565 226.525,244.573 226.479,245.015 226.451,245.015 225.448,239.381 223.972,239.381 225.993,246.83 
            226.907,246.83 228.869,239.381 227.527,239.381 	"/>
        <path d="M233.343,239.264c-2.05,0-2.227,2.374-2.227,3.893c0,1.578,0.192,3.791,2.271,3.791c1.563,0,2.168-1.255,2.168-2.626
            h-1.283c0,0.575-0.133,1.387-0.871,1.387c-0.899,0-0.871-1.712-0.871-2.331h3.068v-0.222
            C235.599,241.623,235.363,239.264,233.343,239.264z M232.531,242.389c0-0.575-0.059-1.887,0.812-1.887
            c0.841,0,0.841,1.312,0.841,1.887H232.531z"/>
        <polygon points="240.366,244.573 240.337,244.573 239.246,239.381 237.697,239.381 239.673,246.225 238.522,249.882 
            239.982,249.882 243.021,239.381 241.62,239.381 	"/>
        <path d="M255.416,242.551l-0.914,1.299l-1.461-2.418c0.811-0.796,1.65-1.713,1.65-2.936c0-1.283-0.884-2.006-2.123-2.006
            c-1.253,0-2.124,0.898-2.124,2.123c0,0.899,0.398,1.873,0.886,2.611c-0.812,0.812-1.548,1.784-1.548,2.979
            c0,1.446,1.062,2.773,2.493,2.773c0.753,0,1.461-0.369,1.917-1.019l0.531,0.871h1.637l-1.18-1.858l1.18-1.653L255.416,242.551z
             M252.673,237.611c0.531,0,0.812,0.384,0.812,0.886c0,0.782-0.561,1.312-1.061,1.829c-0.266-0.545-0.621-1.105-0.621-1.74
            C251.803,238.113,252.171,237.611,252.673,237.611z M252.451,245.709c-0.768,0-1.254-0.781-1.254-1.562
            c0-0.752,0.34-1.24,0.841-1.77l1.535,2.566C253.308,245.384,252.953,245.709,252.451,245.709z"/>
        <polygon points="268.564,235.709 267.607,240.605 267.162,243.274 267.119,243.732 267.09,243.732 265.513,235.709 
            264.242,235.709 263.328,246.83 264.729,246.83 265.157,239.16 265.187,239.16 266.617,246.83 267.635,246.83 268.786,240.752 
            269.035,239.16 269.065,239.16 269.096,240.621 269.185,242.686 269.449,246.83 270.895,246.83 269.862,235.709 	"/>
        <path d="M276.459,240.207h-0.027c-0.251-0.545-0.68-0.943-1.328-0.943c-1.756,0-1.799,2.507-1.799,3.745
            c0,1.209,0.027,3.938,1.756,3.938c0.795,0,1.09-0.429,1.371-1.076h0.027v0.957h1.388v-7.448h-1.388V240.207z M275.633,245.709
            c-1.031,0-0.913-1.99-0.913-2.61c0-0.604-0.118-2.596,0.913-2.596c0.93,0,0.871,2.007,0.871,2.596S276.562,245.709,275.633,245.709
            z"/>
        <path d="M282.172,240.295h-0.028v-0.914h-1.386v7.449h1.4v-4.689c0-0.944,0.324-1.519,1.357-1.519l0.234,0.015v-1.371
            C282.983,239.264,282.496,239.646,282.172,240.295z"/>
        <rect x="286.333" y="239.381" width="1.388" height="7.449"/>
        <path d="M287.043,236.211c-0.517,0-0.93,0.412-0.93,0.914c0,0.516,0.413,0.93,0.93,0.93c0.486,0,0.914-0.414,0.914-0.93
            C287.957,236.623,287.528,236.211,287.043,236.211z"/>
        <polygon points="292.293,237.272 290.908,237.272 290.908,239.381 290.155,239.381 290.155,240.473 290.908,240.473 
            290.908,246.83 292.293,246.83 292.293,240.473 293.031,240.473 293.031,239.381 292.293,239.381 	"/>
        <rect x="295.497" y="239.381" width="1.388" height="7.449"/>
        <path d="M296.207,236.211c-0.518,0-0.93,0.412-0.93,0.914c0,0.516,0.412,0.93,0.93,0.93c0.486,0,0.913-0.414,0.913-0.93
            C297.12,236.623,296.692,236.211,296.207,236.211z"/>
        <path d="M305.574,239.264c-0.754,0-1.24,0.383-1.535,1.031h-0.028c-0.147-0.648-0.679-1.031-1.343-1.031
            c-0.707,0-1.18,0.412-1.461,1.031h-0.028v-0.914h-1.402v7.449h1.388v-4.734c0.027-0.635-0.029-1.594,0.841-1.594
            c0.796,0,0.78,0.678,0.796,1.269v5.058h1.386v-4.734c0-0.664-0.104-1.594,0.886-1.594c0.678,0,0.751,0.561,0.751,1.105v5.222h1.388
            v-5.767C307.211,240.074,306.886,239.264,305.574,239.264z"/>
        <path d="M312.128,239.264c-2.05,0-2.228,2.374-2.228,3.893c0,1.578,0.191,3.791,2.271,3.791c1.563,0,2.169-1.255,2.169-2.626
            h-1.283c0,0.575-0.132,1.387-0.869,1.387c-0.899,0-0.871-1.712-0.871-2.331h3.068v-0.222
            C314.385,241.623,314.148,239.264,312.128,239.264z M311.316,242.389c0-0.575-0.059-1.887,0.812-1.887
            c0.841,0,0.841,1.312,0.841,1.887H311.316z"/>
        <path d="M323.238,239.588c-0.293-0.384-0.412-0.723-0.412-1.209c0-0.768,0.501-1.43,1.312-1.43c0.5,0,0.869,0.19,1.254,0.472
            l0.016-1.49c-0.473-0.28-1.002-0.369-1.563-0.369c-1.666,0-2.493,1.284-2.493,2.846c0,2.921,3.113,3.363,3.113,5.575
            c0,0.826-0.384,1.549-1.299,1.549c-0.575,0-1.018-0.251-1.461-0.576v1.491c0.457,0.368,1.048,0.531,1.622,0.531
            c1.637,0,2.61-1.343,2.61-2.906c0-1.504-0.575-2.24-1.577-3.259L323.238,239.588z"/>
        <path d="M330.572,239.264c-2.049,0-2.228,2.374-2.228,3.893c0,1.578,0.191,3.791,2.271,3.791c1.563,0,2.17-1.255,2.17-2.626h-1.283
            c0,0.575-0.133,1.387-0.87,1.387c-0.899,0-0.87-1.712-0.87-2.331h3.067v-0.222C332.829,241.623,332.594,239.264,330.572,239.264z
             M329.762,242.389c0-0.575-0.06-1.887,0.811-1.887c0.842,0,0.842,1.312,0.842,1.887H329.762z"/>
        <path d="M336.934,240.295h-0.029v-0.914h-1.387v7.449h1.402v-4.689c0-0.944,0.324-1.519,1.357-1.519l0.234,0.015v-1.371
            C337.744,239.264,337.258,239.646,336.934,240.295z"/>
        <polygon points="343.75,241.565 343.203,244.573 343.159,245.015 343.131,245.015 342.127,239.381 340.652,239.381 342.674,246.83 
            343.588,246.83 345.55,239.381 344.207,239.381 	"/>
        <rect x="348.002" y="239.381" width="1.387" height="7.449"/>
        <path d="M348.71,236.211c-0.517,0-0.93,0.412-0.93,0.914c0,0.516,0.413,0.93,0.93,0.93c0.487,0,0.914-0.414,0.914-0.93
            C349.624,236.623,349.195,236.211,348.71,236.211z"/>
        <path d="M352.073,243.172c0,1.474,0.236,3.775,2.198,3.775c0.412,0,0.768-0.088,1.119-0.295v-1.283
            c-0.221,0.162-0.396,0.281-0.707,0.281c-1.164,0-1.195-1.859-1.195-2.611c0-0.795,0.03-2.463,1.226-2.479
            c0.309,0.016,0.501,0.133,0.647,0.354h0.029v-1.401c-0.369-0.177-0.693-0.249-1.105-0.249
            C352.252,239.264,352.073,241.638,352.073,243.172z"/>
        <path d="M360.027,239.264c-2.05,0-2.229,2.374-2.229,3.893c0,1.578,0.191,3.791,2.271,3.791c1.562,0,2.17-1.255,2.17-2.626h-1.284
            c0,0.575-0.132,1.387-0.87,1.387c-0.898,0-0.87-1.712-0.87-2.331h3.068v-0.222C362.284,241.623,362.048,239.264,360.027,239.264z
             M359.216,242.389c0-0.575-0.06-1.887,0.812-1.887c0.842,0,0.842,1.312,0.842,1.887H359.216z"/>
        <path d="M365.797,241.3c0-0.502,0.428-0.797,0.945-0.797c0.339,0,0.768,0.162,1.033,0.398v-1.312
            c-0.398-0.235-0.783-0.324-1.255-0.324c-1.181,0-1.991,0.854-1.991,2.035c0,2.064,2.33,2.153,2.33,3.466
            c0,0.574-0.324,0.943-0.928,0.943c-0.473,0-0.797-0.191-1.151-0.472v1.357c0.413,0.25,0.722,0.353,1.209,0.353
            c1.327,0,2.138-0.898,2.138-2.212C368.127,242.611,365.826,242.551,365.797,241.3z"/>
        <path d="M375.914,235.709l-2.418,11.121h1.445l0.414-2.168h2.211l0.414,2.168h1.488l-2.389-11.121H375.914z M375.576,243.512
            l0.885-5.649h0.029l0.561,4.041l0.295,1.608H375.576z"/>
        <path d="M384.592,239.264c-0.767,0-1.105,0.441-1.371,1.076h-0.029v-0.959h-1.387v10.501h1.387v-3.894h0.029
            c0.279,0.605,0.604,0.959,1.326,0.959c1.756,0,1.801-2.508,1.801-3.762C386.346,241.977,386.316,239.264,384.592,239.264z
             M384.931,243.112c0,1.239-0.044,2.596-0.915,2.596c-0.928,0-0.869-2.007-0.869-2.596c0-0.604-0.059-2.61,0.869-2.61
            C385.049,240.502,384.931,242.508,384.931,243.112z"/>
        <path d="M390.845,240.812l-1.122-1.224c-0.293-0.384-0.413-0.723-0.413-1.209c0-0.768,0.502-1.43,1.312-1.43
            c0.501,0,0.87,0.19,1.255,0.472l0.016-1.49c-0.473-0.28-1.002-0.369-1.563-0.369c-1.666,0-2.493,1.284-2.493,2.846
            c0,2.921,3.113,3.363,3.113,5.575c0,0.826-0.384,1.549-1.299,1.549c-0.576,0-1.018-0.251-1.461-0.576v1.491
            c0.457,0.368,1.048,0.531,1.622,0.531c1.637,0,2.61-1.343,2.61-2.906C392.422,242.567,391.847,241.83,390.845,240.812z"/>
    </g>
</svg>
