<svg version="1.1" xmlns="http://www.w3.org/2000/svg" xmlns:xlink="http://www.w3.org/1999/xlink" x="0px" y="0px" viewBox="0 0 233.005 203.296" xml:space="preserve">
    <style>
        .blue{
            fill:#3E86B3;
        }
        .grey{
        fill:#333333;
        }
    </style>
    <g class="4s">
        <polygon class="blue" points="115.009,0 83.761,15.809 83.761,38.269 115.009,22.46 	"/>
        <polygon class="blue" points="92.961,69.658 103.762,66.01 103.777,50.229 103.687,50.259 	"/>
        <path class="blue" d="M115.009,23.812L68.521,47.48l46.488,83.481V23.812z M111.758,66.917l-4.203,1.419l-0.006,15.505
            l-3.797,1.282l0.006-15.505l-17.445,5.892l21.183-38.336l0.091-0.03l-0.027,27.583l4.203-1.419L111.758,66.917z"/>
        <polygon class="grey" points="147.674,15.809 116.426,0 116.426,22.46 147.674,38.269 	"/>
        <path class="grey" d="M116.427,130.962l46.488-83.481l-46.488-23.669V130.962z M131.46,62.029l-1.53-2.16
            c-2.922-4.228-5.418-8.464-5.122-14.5c0.321-6.539,3.938-8.489,7.797-5.953c2.895,1.902,5.222,5.913,6.398,10.955l-2.427,0.886
            c-0.891-3.586-2.049-6.077-4.255-7.526c-2.309-1.518-4.438-0.147-4.626,3.708c-0.179,3.632,2.047,6.826,3.74,9.266l1.663,2.361
            c3.259,4.623,5.984,9.24,5.656,15.947c-0.362,7.376-4.291,10.621-8.805,7.654c-4.169-2.739-7.057-9.136-7.562-16.219l2.888,0.572
            c0.168,4.551,2.027,9.409,4.818,11.243s5.512,0.044,5.744-4.706C136.08,68.642,133.785,65.402,131.46,62.029z"/>
    </g>
    <g class="maritime">
        <polygon class="grey" points="31.7,144.943 19.598,172.8 7.541,144.943 0.808,180.017 4.592,180.017 8.861,157.573 
            8.949,157.573 19.598,181.381 30.292,157.573 30.38,157.573 34.648,180.017 38.433,180.017 	"/>
        <path class="grey" d="M44.851,180.017h4.048l4.005-9.417h14.17l3.917,9.417h4.093l-14.918-34.765L44.851,180.017z
             M54.4,167.167l5.677-13.29l5.545,13.29H54.4z"/>
        <path class="grey" d="M87.664,165.45h0.924l10.033,14.566h4.533l-10.562-14.874c5.104-0.44,8.317-4.049,8.317-9.153
            c0-7.481-5.853-9.153-12.146-9.153h-4.796v33.181h3.696V165.45z M87.664,150.269h1.1c4.445,0,8.449,0.527,8.449,5.984
            c0,5.149-4.225,5.941-8.405,5.941h-1.144V150.269z"/>
        <rect x="113.183" y="146.836" class="grey" width="3.696" height="33.181"/>
        <polygon class="grey" points="125.986,150.269 133.996,150.269 133.996,180.017 137.692,180.017 137.692,150.269 
            145.79,150.269 145.79,146.836 125.986,146.836 	"/>
        <rect x="154.894" y="146.836" class="grey" width="3.696" height="33.181"/>
        <polygon class="grey" points="205.807,180.017 199.074,144.943 186.972,172.8 174.916,144.943 168.182,180.017 
            171.966,180.017 176.235,157.573 176.324,157.573 186.972,181.381 197.666,157.573 197.754,157.573 202.023,180.017 	"/>
        <polygon class="grey" points="232.512,176.584 219.002,176.584 219.002,163.559 232.117,163.559 232.117,160.126 
            219.002,160.126 219.002,150.269 232.512,150.269 232.512,146.836 215.306,146.836 215.306,180.017 232.512,180.017 	"/>
    </g>
    <g class="description">
        <path class="grey" d="M1.535,194.829c-0.24-0.312-0.336-0.588-0.336-0.983c0-0.624,0.408-1.163,1.067-1.163
            c0.408,0,0.708,0.155,1.02,0.384l0.012-1.212c-0.384-0.228-0.815-0.3-1.271-0.3c-1.355,0-2.027,1.044-2.027,2.314
            c0,2.375,2.53,2.735,2.53,4.534c0,0.671-0.312,1.259-1.055,1.259c-0.468,0-0.828-0.204-1.188-0.468v1.212
            c0.372,0.3,0.852,0.432,1.319,0.432c1.331,0,2.123-1.092,2.123-2.363c0-1.223-0.468-1.822-1.284-2.65L1.535,194.829z"/>
        <polygon class="grey" points="8.014,196.437 7.571,198.883 7.535,199.242 7.511,199.242 6.695,194.661 5.496,194.661 
            7.139,200.718 7.882,200.718 9.478,194.661 8.386,194.661 	"/>
        <path class="grey" d="M13.114,194.565c-1.667,0-1.811,1.931-1.811,3.166c0,1.283,0.156,3.082,1.847,3.082
            c1.271,0,1.763-1.02,1.763-2.135H13.87c0,0.468-0.108,1.128-0.708,1.128c-0.732,0-0.708-1.392-0.708-1.896h2.495v-0.18
            C14.949,196.484,14.757,194.565,13.114,194.565z M12.455,197.107c0-0.468-0.048-1.535,0.66-1.535c0.684,0,0.684,1.067,0.684,1.535
            H12.455z"/>
        <path class="grey" d="M19.51,194.565c-0.6,0-0.971,0.3-1.223,0.791h-0.024v-0.695h-1.127v6.057h1.127v-3.778
            c0-0.516-0.06-1.367,0.684-1.367c0.6,0,0.671,0.54,0.671,0.96v4.186h1.127v-4.162C20.745,195.633,20.709,194.565,19.51,194.565z"/>
        <path class="grey" d="M25.498,195.333h-0.024c-0.228-0.456-0.504-0.768-1.08-0.768c-1.427,0-1.463,2.039-1.463,3.046
            c0,0.983,0.024,3.202,1.427,3.202c0.636,0,0.888-0.348,1.116-0.875h0.024v0.779h1.127v-9.954h-1.127V195.333z M24.826,199.807
            c-0.839,0-0.744-1.619-0.744-2.123c0-0.492-0.096-2.111,0.744-2.111c0.756,0,0.708,1.632,0.708,2.111
            S25.582,199.807,24.826,199.807z"/>
        <path class="grey" d="M31.21,194.565c-0.576,0-0.852,0.3-1.08,0.768h-0.024v-4.569h-1.127v9.954h1.127v-0.779h0.024
            c0.228,0.527,0.468,0.875,1.115,0.875c1.403,0,1.427-2.219,1.427-3.202C32.673,196.604,32.637,194.565,31.21,194.565z
             M30.778,199.807c-0.756-0.013-0.708-1.644-0.708-2.123s-0.048-2.111,0.708-2.111c0.839,0,0.743,1.619,0.743,2.111
            C31.521,198.175,31.618,199.794,30.778,199.807z"/>
        <path class="grey" d="M36.598,194.565c-1.727,0-1.907,1.822-1.907,3.142c0,1.271,0.18,3.106,1.907,3.106
            s1.907-1.835,1.907-3.106C38.505,196.388,38.325,194.565,36.598,194.565z M36.598,199.782c-0.864,0-0.756-1.643-0.756-2.075
            c0-0.479-0.108-2.11,0.756-2.11c0.863,0,0.755,1.631,0.755,2.11C37.354,198.14,37.461,199.782,36.598,199.782z"/>
        <path class="grey" d="M41.842,195.404h-0.024v-0.743h-1.127v6.057h1.139v-3.813c0-0.768,0.264-1.235,1.104-1.235
            l0.192,0.012v-1.115C42.502,194.565,42.106,194.877,41.842,195.404z"/>
        <path class="grey" d="M47.637,195.356l-0.024,0.024c-0.24-0.479-0.503-0.815-1.104-0.815
            c-1.475,0-1.451,2.194-1.451,3.166c0,1.031,0.036,3.082,1.475,3.082c0.552,0.024,0.924-0.323,1.08-0.815h0.024v1.008
            c0,0.552,0.072,1.283-0.684,1.283c-0.563,0-0.744-0.479-0.72-0.912h-1.091v0.168c0,1.128,0.696,1.751,1.787,1.751
            c1.199,0,1.847-0.371,1.847-2.53v-6.104h-1.14V195.356z M46.954,199.807c-0.815,0-0.744-1.691-0.744-2.147
            c0-0.432-0.072-2.087,0.708-2.087c0.732,0,0.732,1.655,0.732,2.147C47.649,198.211,47.769,199.807,46.954,199.807z"/>
        <path class="grey" d="M56.158,194.829c-0.24-0.312-0.336-0.588-0.336-0.983c0-0.624,0.408-1.163,1.067-1.163
            c0.408,0,0.708,0.155,1.02,0.384l0.012-1.212c-0.384-0.228-0.815-0.3-1.271-0.3c-1.355,0-2.027,1.044-2.027,2.314
            c0,2.375,2.53,2.735,2.53,4.534c0,0.671-0.312,1.259-1.055,1.259c-0.468,0-0.828-0.204-1.188-0.468v1.212
            c0.372,0.3,0.852,0.432,1.319,0.432c1.331,0,2.123-1.092,2.123-2.363c0-1.223-0.468-1.822-1.284-2.65L56.158,194.829z"/>
        <path class="grey" d="M62.865,194.565c-0.6,0-0.971,0.3-1.223,0.791h-0.024v-4.593h-1.127v9.954h1.127v-3.778
            c0-0.516-0.06-1.367,0.684-1.367c0.6,0,0.671,0.54,0.671,0.96v4.186h1.127v-4.162C64.101,195.633,64.077,194.565,62.865,194.565z"
            />
        <rect x="66.454" y="194.661" class="grey" width="1.127" height="6.057"/>
        <path class="grey" d="M67.03,192.083c-0.42,0-0.755,0.335-0.755,0.743c0,0.42,0.335,0.756,0.755,0.756
            c0.396,0,0.744-0.336,0.744-0.756C67.773,192.418,67.426,192.083,67.03,192.083z"/>
        <path class="grey" d="M72.201,194.565c-0.624,0-0.899,0.359-1.115,0.875h-0.024v-0.779h-1.127v8.539h1.127v-3.166h0.024
            c0.228,0.492,0.492,0.779,1.08,0.779c1.427,0,1.463-2.039,1.463-3.058C73.628,196.771,73.604,194.565,72.201,194.565z
             M72.477,197.695c0,1.008-0.036,2.111-0.743,2.111c-0.756,0-0.708-1.632-0.708-2.111c0-0.491-0.048-2.123,0.708-2.123
            C72.573,195.572,72.477,197.204,72.477,197.695z"/>
        <path class="grey" d="M80.841,194.829c-0.24-0.312-0.336-0.588-0.336-0.983c0-0.624,0.408-1.163,1.067-1.163
            c0.408,0,0.708,0.155,1.02,0.384l0.012-1.212c-0.384-0.228-0.815-0.3-1.271-0.3c-1.355,0-2.027,1.044-2.027,2.314
            c0,2.375,2.53,2.735,2.53,4.534c0,0.671-0.312,1.259-1.055,1.259c-0.468,0-0.828-0.204-1.188-0.468v1.212
            c0.372,0.3,0.852,0.432,1.319,0.432c1.332,0,2.123-1.092,2.123-2.363c0-1.223-0.468-1.822-1.284-2.65L80.841,194.829z"/>
        <path class="grey" d="M87.668,198.511c0,0.54,0.084,1.271-0.672,1.271c-0.768,0-0.695-0.791-0.695-1.331v-3.79h-1.127
            v3.85c0,1.38,0.228,2.303,1.871,2.303c1.379,0,1.751-0.815,1.751-2.062v-4.09h-1.127V198.511z"/>
        <path class="grey" d="M92.313,195.404h-0.024v-0.743h-1.127v6.057h1.139v-3.813c0-0.768,0.264-1.235,1.104-1.235
            l0.192,0.012v-1.115C92.973,194.565,92.577,194.877,92.313,195.404z"/>
        <polygon class="grey" points="97.856,196.437 97.413,198.883 97.376,199.242 97.353,199.242 96.537,194.661 
            95.337,194.661 96.98,200.718 97.724,200.718 99.319,194.661 98.228,194.661 	"/>
        <path class="grey" d="M102.957,194.565c-1.667,0-1.811,1.931-1.811,3.166c0,1.283,0.156,3.082,1.847,3.082
            c1.271,0,1.763-1.02,1.763-2.135h-1.043c0,0.468-0.108,1.128-0.708,1.128c-0.731,0-0.708-1.392-0.708-1.896h2.495v-0.18
            C104.792,196.484,104.6,194.565,102.957,194.565z M102.297,197.107c0-0.468-0.048-1.535,0.66-1.535
            c0.684,0,0.684,1.067,0.684,1.535H102.297z"/>
        <polygon class="grey" points="108.668,198.883 108.645,198.883 107.757,194.661 106.498,194.661 108.105,200.226 
            107.169,203.2 108.356,203.2 110.827,194.661 109.688,194.661 	"/>
        <path class="grey" d="M120.907,197.239l-0.744,1.056l-1.188-1.967c0.66-0.647,1.343-1.392,1.343-2.387
            c0-1.043-0.719-1.631-1.727-1.631c-1.019,0-1.727,0.731-1.727,1.727c0,0.731,0.324,1.523,0.72,2.123
            c-0.66,0.66-1.259,1.451-1.259,2.423c0,1.176,0.864,2.255,2.027,2.255c0.612,0,1.188-0.3,1.559-0.828l0.432,0.708h1.331
            l-0.959-1.511l0.959-1.344L120.907,197.239z M118.676,193.222c0.432,0,0.66,0.312,0.66,0.72c0,0.636-0.456,1.067-0.863,1.487
            c-0.216-0.443-0.504-0.899-0.504-1.415C117.968,193.63,118.268,193.222,118.676,193.222z M118.496,199.807
            c-0.624,0-1.02-0.636-1.02-1.271c0-0.612,0.276-1.008,0.684-1.439l1.248,2.087C119.192,199.542,118.904,199.807,118.496,199.807z"
            />
        <polygon class="grey" points="131.599,191.675 130.82,195.656 130.459,197.827 130.423,198.199 130.4,198.199 
            129.117,191.675 128.084,191.675 127.341,200.718 128.48,200.718 128.828,194.481 128.852,194.481 130.015,200.718 
            130.843,200.718 131.779,195.776 131.982,194.481 132.006,194.481 132.031,195.669 132.103,197.348 132.318,200.718 
            133.494,200.718 132.654,191.675 	"/>
        <path class="grey" d="M138.019,195.333h-0.023c-0.204-0.444-0.552-0.768-1.08-0.768c-1.427,0-1.463,2.039-1.463,3.046
            c0,0.983,0.023,3.202,1.428,3.202c0.647,0,0.887-0.348,1.115-0.875h0.023v0.779h1.128v-6.057h-1.128V195.333z M137.347,199.807
            c-0.839,0-0.743-1.619-0.743-2.123c0-0.492-0.096-2.111,0.743-2.111c0.756,0,0.708,1.632,0.708,2.111
            S138.103,199.807,137.347,199.807z"/>
        <path class="grey" d="M142.664,195.404h-0.023v-0.743h-1.127v6.057h1.139v-3.813c0-0.768,0.264-1.235,1.104-1.235
            l0.191,0.012v-1.115C143.324,194.565,142.928,194.877,142.664,195.404z"/>
        <rect x="146.048" y="194.661" class="grey" width="1.128" height="6.057"/>
        <path class="grey" d="M146.625,192.083c-0.42,0-0.756,0.335-0.756,0.743c0,0.42,0.336,0.756,0.756,0.756
            c0.396,0,0.743-0.336,0.743-0.756C147.368,192.418,147.02,192.083,146.625,192.083z"/>
        <polygon class="grey" points="150.895,192.946 149.768,192.946 149.768,194.661 149.156,194.661 149.156,195.549 
            149.768,195.549 149.768,200.718 150.895,200.718 150.895,195.549 151.495,195.549 151.495,194.661 150.895,194.661 	"/>
        <rect x="153.5" y="194.661" class="grey" width="1.128" height="6.057"/>
        <path class="grey" d="M154.077,192.083c-0.42,0-0.756,0.335-0.756,0.743c0,0.42,0.336,0.756,0.756,0.756
            c0.396,0,0.743-0.336,0.743-0.756C154.82,192.418,154.472,192.083,154.077,192.083z"/>
        <path class="grey" d="M161.694,194.565c-0.612,0-1.008,0.312-1.248,0.839h-0.023c-0.12-0.527-0.552-0.839-1.092-0.839
            c-0.575,0-0.959,0.336-1.188,0.839h-0.023v-0.743h-1.14v6.057h1.128v-3.85c0.023-0.516-0.024-1.296,0.684-1.296
            c0.647,0,0.635,0.552,0.647,1.032v4.113h1.127v-3.85c0-0.54-0.084-1.296,0.72-1.296c0.552,0,0.611,0.456,0.611,0.899v4.246h1.128
            v-4.689C163.025,195.225,162.761,194.565,161.694,194.565z"/>
        <path class="grey" d="M167.024,194.565c-1.667,0-1.812,1.931-1.812,3.166c0,1.283,0.156,3.082,1.847,3.082
            c1.271,0,1.764-1.02,1.764-2.135h-1.044c0,0.468-0.107,1.128-0.707,1.128c-0.731,0-0.708-1.392-0.708-1.896h2.495v-0.18
            C168.859,196.484,168.667,194.565,167.024,194.565z M166.364,197.107c0-0.468-0.048-1.535,0.66-1.535
            c0.684,0,0.684,1.067,0.684,1.535H166.364z"/>
        <path class="grey" d="M176.059,194.829c-0.239-0.312-0.336-0.588-0.336-0.983c0-0.624,0.408-1.163,1.068-1.163
            c0.407,0,0.707,0.155,1.019,0.384l0.013-1.212c-0.384-0.228-0.815-0.3-1.271-0.3c-1.355,0-2.027,1.044-2.027,2.314
            c0,2.375,2.531,2.735,2.531,4.534c0,0.671-0.312,1.259-1.056,1.259c-0.468,0-0.827-0.204-1.188-0.468v1.212
            c0.372,0.3,0.852,0.432,1.319,0.432c1.331,0,2.123-1.092,2.123-2.363c0-1.223-0.468-1.822-1.283-2.65L176.059,194.829z"/>
        <path class="grey" d="M182.023,194.565c-1.667,0-1.812,1.931-1.812,3.166c0,1.283,0.156,3.082,1.847,3.082
            c1.271,0,1.764-1.02,1.764-2.135h-1.044c0,0.468-0.107,1.128-0.707,1.128c-0.731,0-0.708-1.392-0.708-1.896h2.495v-0.18
            C183.858,196.484,183.666,194.565,182.023,194.565z M181.363,197.107c0-0.468-0.048-1.535,0.66-1.535
            c0.684,0,0.684,1.067,0.684,1.535H181.363z"/>
        <path class="grey" d="M187.195,195.404h-0.023v-0.743h-1.128v6.057h1.14v-3.813c0-0.768,0.264-1.235,1.104-1.235
            l0.191,0.012v-1.115C187.855,194.565,187.459,194.877,187.195,195.404z"/>
        <polygon class="grey" points="192.739,196.437 192.294,198.883 192.258,199.242 192.235,199.242 191.419,194.661 
            190.22,194.661 191.863,200.718 192.607,200.718 194.202,194.661 193.11,194.661 	"/>
        <rect x="196.196" y="194.661" class="grey" width="1.128" height="6.057"/>
        <path class="grey" d="M196.772,192.083c-0.42,0-0.756,0.335-0.756,0.743c0,0.42,0.336,0.756,0.756,0.756
            c0.396,0,0.743-0.336,0.743-0.756C197.515,192.418,197.167,192.083,196.772,192.083z"/>
        <path class="grey" d="M199.507,197.743c0,1.199,0.192,3.07,1.787,3.07c0.336,0,0.624-0.071,0.911-0.239v-1.044
            c-0.18,0.132-0.323,0.229-0.575,0.229c-0.947,0-0.972-1.512-0.972-2.123c0-0.647,0.024-2.003,0.996-2.016
            c0.251,0.013,0.407,0.108,0.527,0.288h0.023v-1.14c-0.3-0.144-0.563-0.203-0.899-0.203
            C199.652,194.565,199.507,196.496,199.507,197.743z"/>
        <path class="grey" d="M205.975,194.565c-1.667,0-1.812,1.931-1.812,3.166c0,1.283,0.156,3.082,1.847,3.082
            c1.271,0,1.764-1.02,1.764-2.135h-1.044c0,0.468-0.107,1.128-0.707,1.128c-0.731,0-0.708-1.392-0.708-1.896h2.495v-0.18
            C207.81,196.484,207.618,194.565,205.975,194.565z M205.315,197.107c0-0.468-0.048-1.535,0.66-1.535
            c0.684,0,0.684,1.067,0.684,1.535H205.315z"/>
        <path class="grey" d="M210.667,196.221c0-0.408,0.348-0.648,0.768-0.648c0.276,0,0.624,0.132,0.84,0.324v-1.067
            c-0.324-0.192-0.636-0.264-1.02-0.264c-0.96,0-1.619,0.695-1.619,1.655c0,1.679,1.895,1.751,1.895,2.818
            c0,0.468-0.264,0.768-0.755,0.768c-0.384,0-0.648-0.156-0.936-0.384v1.104c0.336,0.203,0.587,0.287,0.983,0.287
            c1.079,0,1.739-0.731,1.739-1.799C212.562,197.288,210.691,197.239,210.667,196.221z"/>
        <path class="grey" d="M218.894,191.675l-1.967,9.043h1.176l0.336-1.763h1.799l0.336,1.763h1.211l-1.943-9.043H218.894z
             M218.619,198.02l0.72-4.594h0.023l0.456,3.286l0.24,1.308H218.619z"/>
        <path class="grey" d="M225.95,194.565c-0.623,0-0.899,0.359-1.115,0.875h-0.023v-0.779h-1.128v8.539h1.128v-3.166h0.023
            c0.228,0.492,0.492,0.779,1.079,0.779c1.428,0,1.464-2.039,1.464-3.058C227.377,196.771,227.353,194.565,225.95,194.565z
             M226.226,197.695c0,1.008-0.036,2.111-0.744,2.111c-0.755,0-0.707-1.632-0.707-2.111c0-0.491-0.048-2.123,0.707-2.123
            C226.322,195.572,226.226,197.204,226.226,197.695z"/>
        <path class="grey" d="M231.035,195.824l-0.912-0.995c-0.239-0.312-0.336-0.588-0.336-0.983
            c0-0.624,0.408-1.163,1.067-1.163c0.408,0,0.708,0.155,1.02,0.384l0.013-1.212c-0.384-0.228-0.815-0.3-1.271-0.3
            c-1.355,0-2.027,1.044-2.027,2.314c0,2.375,2.531,2.735,2.531,4.534c0,0.671-0.312,1.259-1.056,1.259
            c-0.468,0-0.827-0.204-1.188-0.468v1.212c0.372,0.3,0.852,0.432,1.319,0.432c1.331,0,2.123-1.092,2.123-2.363
            C232.318,197.252,231.85,196.652,231.035,195.824z"/>
    </g>
</svg>