<svg version="1.1" id="Layer_1" xmlns="http://www.w3.org/2000/svg" xmlns:xlink="http://www.w3.org/1999/xlink" x="0px" y="0px" viewBox="0 0 59.734 82.877" xml:space="preserve">
    <style>
        .white{
            fill:#fff;
        }
    </style>
    <g>
        <polygon class="white" points="29.42,0 9.645,10.006 9.645,24.217 29.42,14.213"/>
        <polygon class="white" points="15.467,44.082 22.302,41.774 22.312,31.788 22.254,31.805"/>
        <path class="white" d="M29.42,15.068L0,30.049l29.42,52.828V15.068z M27.361,42.347l-2.66,0.899l-0.004,9.812l-2.402,0.812l0.003-9.812
            l-11.04,3.731l13.406-24.259l0.059-0.021l-0.018,17.456l2.66-0.899L27.361,42.347z"/>
        <polygon class="white" points="50.089,10.006 30.315,0 30.315,14.213 50.089,24.217"/>
        <path class="white" d="M30.315,82.877l29.419-52.83l-29.419-14.98V82.877z M39.83,39.254l-0.969-1.365c-1.852-2.676-3.43-5.359-3.242-9.178
            c0.201-4.137,2.492-5.371,4.934-3.765c1.832,1.204,3.306,3.742,4.046,6.931l-1.535,0.561c-0.563-2.27-1.295-3.846-2.693-4.763
            c-1.46-0.96-2.808-0.093-2.927,2.347c-0.113,2.299,1.296,4.32,2.369,5.863l1.051,1.495c2.065,2.928,3.787,5.849,3.58,10.093
            c-0.23,4.668-2.715,6.721-5.571,4.845c-2.642-1.733-4.466-5.782-4.784-10.265l1.826,0.363c0.107,2.879,1.281,5.953,3.049,7.115
            c1.766,1.16,3.488,0.027,3.635-2.977C42.752,43.44,41.301,41.389,39.83,39.254z"/>
    </g>
</svg>
